<svg width="319" height="267" viewBox="0 0 319 267" fill="none" xmlns="http://www.w3.org/2000/svg">
<path d="M318.537 132.597C319.062 128.663 317.882 125.384 317.095 122.761C314.734 115.023 309.488 108.465 302.799 104.268C304.504 100.596 305.422 96.3987 305.422 92.0706C305.422 75.9386 292.438 62.9543 276.306 62.9543C276.306 54.1669 269.223 47.0845 260.436 47.0845C251.649 47.0845 257.288 47.3469 255.845 47.7403C255.845 47.478 255.845 47.3469 255.845 47.0845C255.845 30.9525 242.861 17.9682 226.729 17.9682C210.597 17.9682 215.974 19.5421 211.515 22.2963C210.728 22.034 209.81 21.7717 209.023 21.5094C206.925 13.3778 199.58 7.34465 190.662 7.34465C181.743 7.34465 180.563 9.57429 177.153 12.9843C171.906 5.11503 162.988 0 152.889 0C142.79 0 132.953 5.7708 127.838 14.2959C125.084 11.9351 121.412 10.4924 117.477 10.4924C110.788 10.4924 105.149 14.5582 102.788 20.4601C97.6728 16.3943 91.3774 14.0336 84.2951 14.0336C68.0319 14.0336 54.7852 27.2802 54.7852 43.5434C54.7852 59.8066 55.0475 48.3961 55.7033 50.6257C54.6541 50.4946 53.736 50.3634 52.6868 50.3634C42.1944 50.3634 33.6693 58.8885 33.6693 69.3809C33.6693 79.8732 33.9316 73.3155 34.5874 75.0205C20.8161 77.3813 10.3238 89.3164 10.3238 103.743C10.3238 118.17 11.8976 114.367 14.5207 118.695C5.0776 122.367 -0.824367 131.811 0.093716 141.778C0.880644 152.008 8.61876 160.402 18.8488 162.238C19.2423 163.681 21.6031 172.862 29.7347 176.403C34.7186 178.502 39.5713 177.584 42.4567 177.059C44.5552 176.665 48.4898 175.878 52.6868 172.993C59.638 168.14 61.7364 160.927 62.7857 157.386C63.7037 154.369 64.2284 151.09 64.2284 147.68C64.2284 144.27 63.9661 142.959 63.4414 140.598C65.0153 141.122 66.8515 141.516 68.5565 141.516C74.9831 141.516 80.6227 137.581 83.1146 132.073C88.2297 136.27 94.6563 138.893 101.739 138.893C112.1 138.893 121.15 133.516 126.396 125.384C129.15 129.843 134.134 132.729 139.774 132.729C145.413 132.729 148.561 130.761 151.446 127.482C156.561 135.876 165.742 141.516 176.366 141.516C186.989 141.516 198.137 134.565 202.728 124.597C207.712 128.663 214.138 131.155 221.089 131.155C228.041 131.155 228.696 130.368 232.106 128.925C234.336 135.089 240.107 139.417 247.058 139.417C254.009 139.417 250.73 139.024 252.435 138.499C253.878 146.369 257.944 153.32 263.846 158.173C263.846 158.697 263.846 159.353 263.846 159.878C263.846 162.107 264.371 168.665 268.699 173.255C273.682 178.502 281.027 178.239 283.126 178.239C284.437 178.239 291.651 177.846 297.553 172.206C306.471 163.812 304.11 151.221 303.848 150.303C305.553 149.516 317.095 143.614 318.406 132.466L318.537 132.597Z" fill="#2E2E37"/>
<path d="M294.274 181.125L262.272 171.55C209.285 136.27 179.382 187.158 179.382 187.158C156.955 175.616 141.347 187.158 141.347 187.158C105.28 134.827 57.0148 172.206 57.0148 172.206L24.3573 180.338L23.7015 202.11L37.3416 208.274C35.8989 241.062 63.048 267.949 94.3939 266.769C125.346 265.588 150.266 237.128 146.725 204.864C160.365 193.978 173.218 203.552 173.218 203.552C170.464 239.357 199.842 267.818 230.27 266.113C257.419 264.539 281.683 239.357 281.289 207.618L294.93 202.241L294.274 181.125ZM39.3089 198.044C35.5055 198.044 32.4889 195.027 32.4889 191.224C32.4889 187.42 35.5055 184.404 39.3089 184.404C43.1124 184.404 46.129 187.42 46.129 191.224C46.129 195.027 43.1124 198.044 39.3089 198.044ZM93.0824 253.129C70.1303 253.129 51.6375 235.029 51.6375 212.733C51.6375 190.437 70.2615 172.337 93.0824 172.337C115.903 172.337 134.527 190.437 134.527 212.733C134.527 235.029 115.903 253.129 93.0824 253.129ZM227.647 252.473C204.695 252.473 186.202 234.374 186.202 212.077C186.202 189.781 204.826 171.682 227.647 171.682C250.468 171.682 269.092 189.781 269.092 212.077C269.092 234.374 250.468 252.473 227.647 252.473ZM281.289 198.437C277.486 198.437 274.469 195.421 274.469 191.617C274.469 187.814 277.486 184.797 281.289 184.797C285.093 184.797 288.109 187.814 288.109 191.617C288.109 195.421 285.093 198.437 281.289 198.437Z" fill="#2E2E37"/>
</svg>
